# xmcd CD database file
#
# Track frame offsets:
#	150
#	49646
#	87583
#	126801
#	146034
#	185552
#
# Disc length: 3002 seconds
#
# Revision: 0
# Processed by: cddbd v1.5.2PL0 Copyright (c) Steve Scherf et al.
# Submitted via: Feurio! 1.68 - http://www.feurio.com
#
DISCID=540bb806
DTITLE=A.B. Sky Blues Band - Avalon Ballroom   San Francisco, CA   03-30-69
DYEAR=1900
DGENRE=
TTITLE0=The World Needs Love
TTITLE1=Thinking It Over
TTITLE2=Sweet Little Angel
TTITLE3=Just What I Needed
TTITLE4=Saint James Infirmary
TTITLE5=Everyday (I Have The Blues)
EXTD=
EXTT0=
EXTT1=
EXTT2=
EXTT3=
EXTT4=
EXTT5=
PLAYORDER=
